M48
; DRILL file {KiCad (5.1.5)-3} date 28/11/2020 21:50:02
; FORMAT={-:-/ absolute / inch / decimal}
; #@! TF.CreationDate,2020-11-28T21:50:02-05:00
; #@! TF.GenerationSoftware,Kicad,Pcbnew,(5.1.5)-3
FMAT,2
INCH
T1C0.0120
T2C0.0200
T3C0.0236
T4C0.0394
T5C0.0429
T6C0.0433
T7C0.1200
T8C0.1260
T9C0.1339
%
G90
G05
T1
X0.354Y0.5551
X0.361Y0.5024
X0.3787Y0.7137
X0.3796Y0.5338
X0.4028Y2.9964
X0.4111Y0.7127
X0.412Y2.9617
X0.4318Y0.5169
X0.4398Y1.2853
X0.4615Y0.5741
X0.4719Y1.2846
X0.4814Y0.5565
X0.4892Y2.085
X0.5161Y2.0915
X0.5323Y0.5554
X0.5541Y0.4917
X0.5815Y0.5733
X0.6249Y2.8309
X0.6312Y0.4988
X0.6519Y0.5333
X0.6557Y1.2331
X0.6747Y0.5754
X0.6813Y0.5025
X0.7045Y1.9944
X0.7212Y0.8264
X0.7496Y0.6285
X0.8027Y0.6481
X0.8544Y0.4668
X0.8557Y0.797
X1.0037Y2.0822
X1.005Y2.2699
X1.0112Y1.9842
X1.0619Y2.2715
X1.0793Y2.1953
X1.1392Y0.827
X1.1887Y0.8479
X1.2178Y2.2425
X1.2218Y2.2053
X1.2415Y1.5692
X1.2417Y1.3541
X1.2541Y0.9451
X1.2624Y1.0
X1.2754Y1.4198
X1.29Y0.774
X1.2988Y1.2604
X1.3264Y2.3293
X1.3442Y2.3755
X1.3535Y2.3207
X1.3543Y1.0201
X1.3736Y2.399
X1.3793Y2.3337
X1.3816Y1.3488
X1.3816Y1.0992
X1.3828Y0.8853
X1.3834Y0.7219
X1.407Y0.8575
X1.4314Y0.7215
X1.4339Y2.0827
X1.4514Y2.113
X1.4529Y0.5765
X1.4827Y1.2863
X1.4833Y1.3232
X1.4835Y2.3902
X1.4835Y1.2483
X1.5004Y1.6132
X1.5028Y2.419
X1.5038Y1.1466
X1.5051Y2.4449
X1.5067Y1.0692
X1.5073Y1.7475
X1.5074Y0.7619
X1.5195Y2.6491
X1.5268Y1.503
X1.5272Y2.4813
X1.5283Y2.0361
X1.5283Y1.8156
X1.5316Y1.1122
X1.5354Y2.7475
X1.5378Y3.0139
X1.5404Y2.1125
X1.5592Y0.932
X1.5746Y3.0136
X1.5784Y1.04
X1.5794Y0.907
X1.583Y2.6134
X1.5934Y1.0705
X1.5999Y0.9565
X1.6029Y2.359
X1.6095Y2.6308
X1.6103Y0.7184
X1.6123Y3.0132
X1.615Y1.2312
X1.6187Y2.6696
X1.6271Y2.768
X1.6319Y1.6525
X1.7647Y2.8585
X1.7795Y2.879
X1.7877Y2.9029
X1.7996Y1.5455
X1.806Y3.1204
X1.8272Y2.4627
X2.2971Y1.0924
X2.3068Y2.6391
X2.3531Y2.5529
X2.3568Y0.9942
X2.3755Y1.0642
X2.4549Y2.6379
X2.4549Y0.9978
X2.4552Y1.0922
X2.4554Y2.5681
X2.4663Y2.6696
X2.982Y3.2895
X2.982Y2.8958
X2.982Y2.5021
X2.982Y2.1084
X2.982Y1.7147
X2.982Y1.321
X2.982Y0.9273
X2.982Y0.5336
X2.982Y0.1399
X3.0699Y3.6844
X3.3755Y3.6838
X3.3755Y3.2901
X3.3755Y2.8964
X3.3755Y2.5027
X3.3755Y2.109
X3.3755Y1.7153
X3.3755Y1.3216
X3.3755Y0.9279
X3.3755Y0.5342
X3.3755Y0.1405
X3.7699Y3.6838
X3.7699Y3.2901
X3.7699Y2.8964
X3.7699Y2.5027
X3.7699Y2.109
X3.7699Y1.7153
X3.7699Y1.3216
X3.7699Y0.9279
X3.7699Y0.5342
X3.7699Y0.1405
X4.1631Y3.6835
X4.1631Y3.2898
X4.1631Y2.8961
X4.1631Y2.5024
X4.1631Y2.1087
X4.1631Y1.715
X4.1631Y1.3213
X4.1631Y0.9276
X4.1631Y0.5339
X4.1631Y0.1402
X4.5569Y3.6841
X4.5569Y3.2904
X4.5569Y2.8967
X4.5569Y2.503
X4.5569Y2.1093
X4.5569Y1.7156
X4.5569Y1.3219
X4.5569Y0.9282
X4.5569Y0.5345
X4.5569Y0.1408
X4.9507Y3.6838
X4.9507Y3.2901
X4.9507Y2.8964
X4.9507Y2.5027
X4.9507Y2.109
X4.9507Y1.7153
X4.9507Y1.3216
X4.9507Y0.9279
X4.9507Y0.5342
X4.9507Y0.1405
X5.3446Y3.6841
X5.3446Y3.2904
X5.3446Y2.8967
X5.3446Y2.503
X5.3446Y2.1093
X5.3446Y1.7156
X5.3446Y1.3219
X5.3446Y0.9282
X5.3446Y0.5345
X5.3446Y0.1408
X5.738Y3.6838
X5.738Y3.2901
X5.738Y2.8964
X5.738Y2.5027
X5.738Y2.109
X5.738Y1.7153
X5.738Y1.3216
X5.738Y0.9279
X5.738Y0.5342
X5.738Y0.1405
X6.1309Y3.6838
X6.1309Y3.2901
X6.1309Y2.8964
X6.1309Y2.5027
X6.1309Y2.109
X6.1309Y1.7153
X6.1309Y1.3216
X6.1309Y0.9279
X6.1309Y0.5342
X6.1309Y0.1405
X6.5254Y3.6838
X6.5254Y3.2901
X6.5254Y2.8964
X6.5254Y2.5027
X6.5254Y2.109
X6.5254Y1.7156
X6.5254Y1.3216
X6.5254Y0.9279
X6.5254Y0.5342
X6.5254Y0.1405
T2
X0.2762Y0.8177
X0.2931Y0.2521
X0.3312Y0.6902
X0.3315Y0.804
X0.3316Y0.4962
X0.3446Y0.2989
X0.4Y3.1306
X0.4001Y3.1816
X0.4554Y3.1302
X0.456Y3.1823
X0.4812Y0.4967
X0.4882Y1.515
X0.4883Y1.566
X0.4981Y2.314
X0.4982Y2.365
X0.5303Y0.6902
X0.5436Y1.5146
X0.5442Y1.5667
X0.5535Y2.3136
X0.5541Y2.3657
X0.6814Y0.693
X0.7133Y0.4374
X0.8936Y0.3372
X0.9484Y3.347
X0.9484Y3.2999
X0.9547Y3.5735
X0.9903Y3.3226
X0.9921Y3.5728
X1.0263Y3.347
X1.0263Y3.2999
X1.0289Y3.5725
X1.1111Y3.2181
X1.1452Y0.3372
X1.2848Y2.1422
X1.2857Y2.2561
X1.2972Y1.8817
X1.2972Y1.7494
X1.3569Y1.7499
X1.3571Y1.8452
X1.358Y2.1708
X1.3745Y2.2219
X1.3748Y2.573
X1.3838Y1.9662
X1.4189Y1.4402
X1.4652Y1.4413
X1.4858Y2.2874
X1.496Y0.5934
X1.504Y2.5728
X1.5129Y0.6596
X1.5298Y2.2342
X1.5732Y0.5331
X1.5938Y3.8069
X1.6136Y0.8258
X1.614Y0.7624
X1.616Y0.6591
X1.6179Y2.2875
X1.6234Y2.2355
X1.6254Y2.3355
X1.6257Y2.8468
X1.6284Y2.3935
X1.6294Y0.5881
X1.6326Y2.1169
X1.6404Y1.7556
X1.6425Y1.8849
X1.6442Y0.4296
X1.6452Y1.3548
X1.6483Y3.7313
X1.6483Y3.6534
X1.6514Y2.0052
X1.6632Y0.6176
X1.671Y3.6894
X1.672Y2.1924
X1.6905Y3.1058
X1.6905Y2.9744
X1.6913Y0.3922
X1.6939Y2.1162
X1.6954Y3.7313
X1.6954Y3.6534
X1.6967Y1.8568
X1.6988Y1.9706
X1.7026Y0.5331
X1.7081Y0.9347
X1.7081Y0.9741
X1.7088Y1.0134
X1.7094Y1.276
X1.71Y0.7768
X1.7102Y0.8358
X1.711Y1.2404
X1.7163Y2.8271
X1.7165Y2.5909
X1.7198Y2.5121
X1.7199Y2.5515
X1.7204Y2.355
X1.7205Y2.7799
X1.7216Y2.4137
X1.724Y1.7893
X1.7284Y1.1882
X1.7284Y1.0599
X1.7388Y0.4331
X1.7408Y0.268
X1.7408Y0.1365
X1.7463Y2.0107
X1.7739Y1.2434
X1.7748Y1.3548
X1.7796Y1.5894
X1.7799Y1.7201
X1.792Y2.0927
X1.7939Y0.2339
X1.7944Y0.5139
X1.7953Y1.0999
X1.809Y3.5853
X1.8094Y2.827
X1.8116Y0.9108
X1.8124Y2.6565
X1.8134Y0.6111
X1.8172Y1.3562
X1.8208Y2.1879
X1.8215Y0.1707
X1.8324Y2.9327
X1.8373Y1.4505
X1.8454Y2.7805
X1.8461Y3.0275
X1.8478Y0.7792
X1.8482Y0.6498
X1.8506Y0.8511
X1.8627Y2.4066
X1.8653Y3.5575
X1.8746Y0.8242
X1.8964Y0.6094
X1.8967Y0.7025
X1.8973Y2.9334
X1.8974Y2.8045
X1.9029Y1.2438
X1.9043Y2.1876
X1.9046Y2.2828
X1.9247Y2.4058
X1.933Y0.857
X1.9358Y1.357
X1.9358Y1.267
X1.9436Y2.9382
X1.9443Y2.8471
X1.9502Y0.6103
X1.9555Y2.0883
X1.9602Y0.5095
X1.9634Y2.1902
X1.9813Y1.0878
X1.9813Y0.9846
X1.9813Y0.8806
X1.9875Y2.3555
X1.9875Y2.224
X1.9883Y2.6639
X1.9883Y2.5607
X1.9883Y2.4567
X1.99Y0.7443
X1.99Y0.6175
X1.9944Y1.3211
X1.9944Y1.1971
X2.0024Y1.3559
X2.0066Y2.9348
X2.0074Y0.8242
X2.0113Y1.4565
X2.0206Y3.0284
X2.0487Y1.9673
X2.0694Y2.3546
X2.0694Y2.225
X2.082Y1.0878
X2.082Y0.9846
X2.082Y0.8806
X2.089Y2.6639
X2.089Y2.5607
X2.089Y2.4567
X2.0969Y0.3207
X2.1088Y2.846
X2.1116Y2.4016
X2.1242Y0.5158
X2.1262Y2.0885
X2.1282Y0.6103
X2.1339Y2.1881
X2.1354Y0.8107
X2.1354Y0.6778
X2.1534Y1.3565
X2.1574Y2.9351
X2.1669Y3.0923
X2.1675Y1.4547
X2.1694Y1.4921
X2.1698Y2.2013
X2.1705Y2.3297
X2.178Y3.0289
X2.1794Y2.0122
X2.1833Y1.0878
X2.1833Y0.9846
X2.1833Y0.8806
X2.1836Y0.8283
X2.1903Y2.6639
X2.1903Y2.5607
X2.1903Y2.4567
X2.196Y0.7074
X2.1964Y0.6124
X2.218Y2.2816
X2.2193Y2.1884
X2.2237Y1.2036
X2.2251Y1.3312
X2.231Y2.0893
X2.2355Y0.6126
X2.2373Y2.846
X2.2383Y0.5153
X2.2455Y2.4018
X2.2504Y1.3572
X2.2569Y3.029
X2.2674Y2.093
X2.2701Y0.6126
X2.2704Y1.4492
X2.2788Y1.815
X2.2901Y1.3589
X2.2909Y1.2638
X2.2937Y1.4923
X2.2939Y3.03
X2.298Y2.9391
X2.2981Y3.0913
X2.2982Y2.8466
X2.3114Y2.4796
X2.3114Y0.6587
X2.3125Y2.0126
X2.3159Y0.8283
X2.3259Y2.262
X2.3268Y1.3086
X2.3453Y2.9336
X2.3454Y2.8045
X2.3513Y2.5931
X2.3587Y1.0313
X2.361Y1.2095
X2.3633Y0.7382
X2.3636Y0.7956
X2.3669Y2.3145
X2.3684Y2.785
X2.3688Y3.6392
X2.3831Y2.8738
X2.4006Y1.5359
X2.406Y1.815
X2.4082Y1.3542
X2.4158Y3.8036
X2.4158Y3.7257
X2.4161Y2.9367
X2.424Y0.8956
X2.4337Y2.4796
X2.4385Y3.7617
X2.4404Y0.6587
X2.4462Y2.5992
X2.45Y1.4037
X2.4504Y1.4999
X2.4514Y3.0205
X2.4526Y2.3902
X2.4529Y2.262
X2.4543Y1.0331
X2.4544Y0.7974
X2.456Y1.309
X2.4563Y1.2103
X2.4572Y1.2496
X2.4586Y0.738
X2.4629Y3.8036
X2.4629Y3.7257
X2.466Y2.8271
X2.4667Y2.7877
X2.4687Y2.3153
X2.4823Y0.554
X2.5265Y2.9558
X2.5498Y1.1074
X2.5504Y1.3284
X2.5507Y1.0725
X2.5533Y1.4328
X2.5538Y0.7536
X2.5543Y0.8956
X2.556Y2.8815
X2.5562Y0.8134
X2.5563Y2.3331
X2.557Y2.6873
X2.5573Y2.6488
X2.5592Y2.3907
X2.5594Y2.917
X2.6044Y3.018
X2.612Y0.5542
X2.6751Y3.7012
X2.6757Y3.6217
X2.6763Y3.7913
X2.6961Y3.6609
X2.8235Y3.7471
X2.8237Y3.9393
X2.8286Y3.2388
X2.8286Y2.8451
X2.8286Y2.4514
X2.8286Y2.0577
X2.8286Y1.664
X2.8286Y1.2703
X2.8286Y0.8766
X2.8286Y0.4829
X2.8286Y0.0892
X2.8297Y3.4316
X2.8297Y3.0379
X2.8297Y2.6442
X2.8297Y2.2505
X2.8297Y1.4631
X2.8297Y1.0694
X2.8297Y0.6757
X2.8297Y0.282
X2.8299Y1.858
X2.9104Y1.858
X2.9113Y3.6716
X2.9113Y3.4246
X2.9113Y3.2779
X2.9113Y3.0309
X2.9113Y2.8842
X2.9113Y2.6372
X2.9113Y2.4905
X2.9113Y2.2435
X2.9113Y2.0968
X2.9113Y1.7031
X2.9113Y1.4561
X2.9113Y1.3094
X2.9113Y1.0624
X2.9113Y0.9157
X2.9113Y0.6687
X2.9113Y0.522
X2.9113Y0.275
X2.9113Y0.1283
X2.9114Y3.8195
X3.2223Y3.6327
X3.2223Y3.239
X3.2223Y2.8453
X3.2223Y2.4516
X3.2223Y2.0579
X3.2223Y1.6642
X3.2223Y1.2705
X3.2223Y0.8768
X3.2223Y0.4831
X3.2223Y0.0894
X3.2234Y3.8255
X3.2234Y3.4318
X3.2234Y3.0381
X3.2234Y2.6444
X3.2234Y2.2507
X3.2234Y1.857
X3.2234Y1.4633
X3.2234Y1.0696
X3.2234Y0.6759
X3.2234Y0.2822
X3.305Y3.8185
X3.305Y3.6718
X3.305Y3.4248
X3.305Y3.2781
X3.305Y3.0311
X3.305Y2.8844
X3.305Y2.6374
X3.305Y2.4907
X3.305Y2.2437
X3.305Y2.097
X3.305Y1.85
X3.305Y1.7033
X3.305Y1.4563
X3.305Y1.3096
X3.305Y1.0626
X3.305Y0.9159
X3.305Y0.6689
X3.305Y0.5222
X3.305Y0.2752
X3.305Y0.1285
X3.6157Y3.6327
X3.6157Y3.239
X3.6157Y2.8453
X3.6157Y2.4516
X3.6157Y2.0579
X3.6157Y1.6642
X3.6157Y1.2705
X3.6157Y0.8768
X3.6157Y0.4831
X3.6157Y0.0894
X3.6168Y3.8255
X3.6168Y3.4318
X3.6168Y3.0381
X3.6168Y2.6444
X3.6168Y2.2507
X3.6168Y1.857
X3.6168Y1.4633
X3.6168Y1.0696
X3.6168Y0.6759
X3.6168Y0.2822
X3.6984Y3.8185
X3.6984Y3.6718
X3.6984Y3.4248
X3.6984Y3.2781
X3.6984Y3.0311
X3.6984Y2.8844
X3.6984Y2.6374
X3.6984Y2.4907
X3.6984Y2.2437
X3.6984Y2.097
X3.6984Y1.85
X3.6984Y1.7033
X3.6984Y1.4563
X3.6984Y1.3096
X3.6984Y1.0626
X3.6984Y0.9159
X3.6984Y0.6689
X3.6984Y0.5222
X3.6984Y0.2752
X3.6984Y0.1285
X4.0096Y3.6326
X4.0096Y3.2389
X4.0096Y2.8452
X4.0096Y2.4515
X4.0096Y2.0578
X4.0096Y1.6641
X4.0096Y1.2704
X4.0096Y0.8767
X4.0096Y0.483
X4.0096Y0.0893
X4.0107Y3.8254
X4.0107Y3.4317
X4.0107Y3.038
X4.0107Y2.6443
X4.0107Y2.2506
X4.0107Y1.8569
X4.0107Y1.4632
X4.0107Y1.0695
X4.0107Y0.6758
X4.0107Y0.2821
X4.0923Y3.8184
X4.0923Y3.6717
X4.0923Y3.4247
X4.0923Y3.278
X4.0923Y3.031
X4.0923Y2.8843
X4.0923Y2.6373
X4.0923Y2.4906
X4.0923Y2.2436
X4.0923Y2.0969
X4.0923Y1.8499
X4.0923Y1.7032
X4.0923Y1.4562
X4.0923Y1.3095
X4.0923Y1.0625
X4.0923Y0.9158
X4.0923Y0.6688
X4.0923Y0.5221
X4.0923Y0.2751
X4.0923Y0.1284
X4.4033Y3.6326
X4.4033Y3.2389
X4.4033Y2.8452
X4.4033Y2.4515
X4.4033Y2.0578
X4.4033Y1.6641
X4.4033Y1.2704
X4.4033Y0.8767
X4.4033Y0.483
X4.4033Y0.0893
X4.4044Y3.8254
X4.4044Y3.4317
X4.4044Y3.038
X4.4044Y2.6443
X4.4044Y2.2506
X4.4044Y1.8569
X4.4044Y1.4632
X4.4044Y1.0695
X4.4044Y0.6758
X4.4044Y0.2821
X4.486Y3.8184
X4.486Y3.6717
X4.486Y3.4247
X4.486Y3.278
X4.486Y3.031
X4.486Y2.8843
X4.486Y2.6373
X4.486Y2.4906
X4.486Y2.2436
X4.486Y2.0969
X4.486Y1.8499
X4.486Y1.7032
X4.486Y1.4562
X4.486Y1.3095
X4.486Y1.0625
X4.486Y0.9158
X4.486Y0.6688
X4.486Y0.5221
X4.486Y0.2751
X4.486Y0.1284
X4.7971Y3.6324
X4.7971Y3.2387
X4.7971Y2.845
X4.7971Y2.4513
X4.7971Y2.0576
X4.7971Y1.6639
X4.7971Y1.2702
X4.7971Y0.8765
X4.7971Y0.4828
X4.7971Y0.0891
X4.7982Y3.8252
X4.7982Y3.4315
X4.7982Y3.0378
X4.7982Y2.6441
X4.7982Y2.2504
X4.7982Y1.8567
X4.7982Y1.463
X4.7982Y1.0693
X4.7982Y0.6756
X4.7982Y0.2819
X4.8798Y3.8182
X4.8798Y3.6715
X4.8798Y3.4245
X4.8798Y3.2778
X4.8798Y3.0308
X4.8798Y2.8841
X4.8798Y2.6371
X4.8798Y2.4904
X4.8798Y2.2434
X4.8798Y2.0967
X4.8798Y1.8497
X4.8798Y1.703
X4.8798Y1.456
X4.8798Y1.3093
X4.8798Y1.0623
X4.8798Y0.9156
X4.8798Y0.6686
X4.8798Y0.5219
X4.8798Y0.2749
X4.8798Y0.1282
X5.1907Y3.6325
X5.1907Y3.2388
X5.1907Y2.8451
X5.1907Y2.4514
X5.1907Y2.0577
X5.1907Y1.664
X5.1907Y1.2703
X5.1907Y0.8766
X5.1907Y0.4829
X5.1907Y0.0892
X5.1918Y3.8253
X5.1918Y3.4316
X5.1918Y3.0379
X5.1918Y2.6442
X5.1918Y2.2505
X5.1918Y1.8568
X5.1918Y1.4631
X5.1918Y1.0694
X5.1918Y0.6757
X5.1918Y0.282
X5.2734Y3.8183
X5.2734Y3.6716
X5.2734Y3.4246
X5.2734Y3.2779
X5.2734Y3.0309
X5.2734Y2.8842
X5.2734Y2.6372
X5.2734Y2.4905
X5.2734Y2.2435
X5.2734Y2.0968
X5.2734Y1.8498
X5.2734Y1.7031
X5.2734Y1.4561
X5.2734Y1.3094
X5.2734Y1.0624
X5.2734Y0.9157
X5.2734Y0.6687
X5.2734Y0.522
X5.2734Y0.275
X5.2734Y0.1283
X5.5844Y3.6325
X5.5844Y3.2388
X5.5844Y2.8451
X5.5844Y2.4514
X5.5844Y2.0577
X5.5844Y1.664
X5.5844Y1.2703
X5.5844Y0.8766
X5.5844Y0.4829
X5.5844Y0.0892
X5.5855Y3.8253
X5.5855Y3.4316
X5.5855Y3.0379
X5.5855Y2.6442
X5.5855Y2.2505
X5.5855Y1.8568
X5.5855Y1.4631
X5.5855Y1.0694
X5.5855Y0.6757
X5.5855Y0.282
X5.6671Y3.8183
X5.6671Y3.6716
X5.6671Y3.4246
X5.6671Y3.2779
X5.6671Y3.0309
X5.6671Y2.8842
X5.6671Y2.6372
X5.6671Y2.4905
X5.6671Y2.2435
X5.6671Y2.0968
X5.6671Y1.8498
X5.6671Y1.7031
X5.6671Y1.4561
X5.6671Y1.3094
X5.6671Y1.0624
X5.6671Y0.9157
X5.6671Y0.6687
X5.6671Y0.522
X5.6671Y0.275
X5.6671Y0.1283
X5.9781Y3.6325
X5.9781Y3.2388
X5.9781Y2.8451
X5.9781Y2.4514
X5.9781Y2.0577
X5.9781Y1.664
X5.9781Y1.2703
X5.9781Y0.8766
X5.9781Y0.4829
X5.9781Y0.0892
X5.9792Y3.8253
X5.9792Y3.4316
X5.9792Y3.0379
X5.9792Y2.6442
X5.9792Y2.2505
X5.9792Y1.8568
X5.9792Y1.4631
X5.9792Y1.0694
X5.9792Y0.6757
X5.9792Y0.282
X6.0608Y3.8183
X6.0608Y3.6716
X6.0608Y3.4246
X6.0608Y3.2779
X6.0608Y3.0309
X6.0608Y2.8842
X6.0608Y2.6372
X6.0608Y2.4905
X6.0608Y2.2435
X6.0608Y2.0968
X6.0608Y1.8498
X6.0608Y1.7031
X6.0608Y1.4561
X6.0608Y1.3094
X6.0608Y1.0624
X6.0608Y0.9157
X6.0608Y0.6687
X6.0608Y0.522
X6.0608Y0.275
X6.0608Y0.1283
X6.3717Y3.6326
X6.3717Y3.2389
X6.3717Y2.8452
X6.3717Y2.4515
X6.3717Y2.0578
X6.3717Y1.6641
X6.3717Y1.2704
X6.3717Y0.8767
X6.3717Y0.483
X6.3717Y0.0893
X6.3728Y3.8254
X6.3728Y3.4317
X6.3728Y3.038
X6.3728Y2.6443
X6.3728Y2.2506
X6.3728Y1.8569
X6.3728Y1.4632
X6.3728Y1.0695
X6.3728Y0.6758
X6.3728Y0.2821
X6.4544Y3.8184
X6.4544Y3.6717
X6.4544Y3.4247
X6.4544Y3.278
X6.4544Y3.031
X6.4544Y2.8843
X6.4544Y2.6373
X6.4544Y2.4906
X6.4544Y2.2436
X6.4544Y2.0969
X6.4544Y1.8499
X6.4544Y1.7032
X6.4544Y1.4562
X6.4544Y1.3095
X6.4544Y1.0625
X6.4544Y0.9158
X6.4544Y0.6688
X6.4544Y0.5221
X6.4544Y0.2751
X6.4544Y0.1284
T3
X0.1851Y2.4174
X0.1851Y2.3682
X0.1851Y2.319
X0.1851Y2.2698
X0.1851Y2.2205
X0.1851Y2.1713
X0.1851Y1.5183
X0.1851Y1.4691
X0.1851Y1.4198
X0.1851Y1.3706
X0.1851Y1.3214
X0.1851Y1.2722
X0.1851Y2.867
X0.1851Y2.8178
X0.1851Y2.7685
X0.1851Y2.7193
X0.1851Y2.6701
X0.1851Y2.6209
X0.1851Y1.9678
X0.1851Y1.9186
X0.1851Y1.8694
X0.1851Y1.8202
X0.1851Y1.771
X0.1851Y1.7218
X0.1854Y0.7043
X0.1854Y0.6551
X0.1854Y0.6059
X0.1854Y0.5567
X0.1854Y0.5074
X0.1854Y0.4582
X0.1854Y0.409
X0.1854Y0.3598
T4
X0.0638Y3.9648
X0.0638Y3.8636
X0.0641Y4.0253
X0.0642Y3.8053
X0.3741Y4.1166
X0.3741Y4.0097
X0.3741Y3.9028
X0.3741Y3.7959
X0.3741Y3.689
X0.3741Y3.5821
X0.3741Y3.4752
X0.5154Y3.3394
X0.5198Y3.169
X0.5488Y1.7194
X0.5591Y2.5194
X0.5615Y4.2534
X0.5615Y4.1513
X0.564Y4.0405
X0.586Y3.3388
X0.6029Y1.5646
X0.6132Y2.3646
X0.6429Y2.915
X0.6432Y2.9804
X0.6479Y1.7188
X0.653Y3.3393
X0.6571Y2.5187
X0.6597Y4.2534
X0.6597Y4.1513
X0.6623Y4.0405
X0.669Y3.0514
X0.6766Y3.1891
X0.6766Y3.1319
X0.7463Y1.3038
X0.7466Y1.3692
X0.7478Y1.4373
X0.7486Y1.7194
X0.7553Y2.0993
X0.7556Y2.1647
X0.7568Y2.2328
X0.758Y4.2534
X0.758Y4.1513
X0.7589Y2.5194
X0.7605Y4.0405
X0.7637Y3.1547
X0.7639Y3.3974
X0.7652Y3.4641
X0.7722Y1.5692
X0.7722Y1.512
X0.7825Y2.3692
X0.7825Y2.312
X0.8235Y3.0952
X0.8248Y3.1566
X0.8399Y3.6412
X0.8419Y3.0144
X0.8529Y3.3974
X0.8535Y3.4628
X0.8833Y3.1564
X0.8891Y4.2587
X0.8891Y4.1566
X0.8916Y4.0458
X0.9874Y4.2587
X0.9874Y4.1566
X0.9899Y4.0458
X1.0165Y3.6412
X1.0201Y2.3414
X1.0269Y1.5414
X1.0446Y2.0414
X1.0488Y1.7435
X1.0501Y1.1414
X1.0509Y1.2414
X1.051Y1.3426
X1.0866Y4.0463
X1.0866Y3.9442
X1.0892Y3.8334
X1.1668Y3.3605
X1.1849Y4.0463
X1.1849Y3.9442
X1.1874Y3.8334
X1.2323Y3.3605
X1.2332Y1.2414
X1.234Y1.1414
X1.2364Y2.5414
X1.2381Y2.7414
X1.2772Y3.113
X1.2778Y3.0489
X1.2842Y4.2608
X1.2842Y4.1587
X1.2868Y4.0479
X1.2952Y3.3605
X1.36Y3.3592
X1.3763Y3.114
X1.3769Y3.0499
X1.3825Y4.2608
X1.3825Y4.1587
X1.385Y4.0479
X1.4711Y4.2608
X1.4711Y4.1587
X1.4736Y4.0479
X1.4965Y3.5332
X1.4965Y3.4608
X1.4965Y3.3884
X1.4965Y3.3159
X1.5694Y4.2608
X1.5694Y4.1587
X1.5719Y4.0479
X1.659Y4.2619
X1.659Y4.1598
X1.6615Y4.049
X1.7393Y3.3397
X1.74Y3.5265
X1.74Y3.4632
X1.74Y3.403
X1.7499Y3.827
X1.7507Y3.8925
X1.7573Y4.2619
X1.7573Y4.1598
X1.7598Y4.049
X1.8163Y3.827
X1.817Y3.8933
X1.848Y4.2629
X1.848Y4.1608
X1.8505Y4.05
X1.9463Y4.2629
X1.9463Y4.1608
X1.9488Y4.05
X2.0499Y4.2652
X2.0499Y4.1631
X2.0524Y4.0523
X2.1482Y4.2652
X2.1482Y4.1631
X2.1507Y4.0523
X2.2626Y3.6192
X2.2635Y3.5497
X2.2644Y3.4756
X2.2644Y3.4024
X2.5078Y3.6063
X2.5083Y3.5401
X2.5083Y3.4734
X2.5094Y3.4119
X2.5148Y3.994
X2.5148Y3.92
X2.5842Y3.9947
X2.5857Y3.9185
X3.0318Y3.7924
X3.0318Y3.5856
X3.0318Y3.3987
X3.0318Y3.1919
X3.0318Y3.005
X3.0318Y2.7982
X3.0318Y2.6113
X3.0318Y2.4045
X3.0318Y2.2176
X3.0318Y2.0108
X3.0318Y1.8239
X3.0318Y1.6171
X3.0318Y1.4302
X3.0318Y1.2234
X3.0318Y1.0365
X3.0318Y0.8297
X3.0318Y0.6428
X3.0318Y0.436
X3.0318Y0.2491
X3.0318Y0.0423
X3.4256Y3.7924
X3.4256Y3.5856
X3.4256Y3.3987
X3.4256Y3.1919
X3.4256Y3.005
X3.4256Y2.7982
X3.4256Y2.6113
X3.4256Y2.4045
X3.4256Y2.2176
X3.4256Y2.0108
X3.4256Y1.8239
X3.4256Y1.6171
X3.4256Y1.4302
X3.4256Y1.2234
X3.4256Y1.0365
X3.4256Y0.8297
X3.4256Y0.6428
X3.4256Y0.436
X3.4256Y0.2491
X3.4256Y0.0423
X3.8192Y3.7925
X3.8192Y3.5857
X3.8192Y3.3988
X3.8192Y3.192
X3.8192Y3.0051
X3.8192Y2.7983
X3.8192Y2.6114
X3.8192Y2.4046
X3.8192Y2.2177
X3.8192Y2.0109
X3.8192Y1.824
X3.8192Y1.6172
X3.8192Y1.4303
X3.8192Y1.2235
X3.8192Y1.0366
X3.8192Y0.8298
X3.8192Y0.6429
X3.8192Y0.4361
X3.8192Y0.2492
X3.8192Y0.0424
X4.2129Y3.7924
X4.2129Y3.5856
X4.2129Y3.3987
X4.2129Y3.1919
X4.2129Y3.005
X4.2129Y2.7982
X4.2129Y2.6113
X4.2129Y2.4045
X4.2129Y2.2176
X4.2129Y2.0108
X4.2129Y1.8239
X4.2129Y1.6171
X4.2129Y1.4302
X4.2129Y1.2234
X4.2129Y1.0365
X4.2129Y0.8297
X4.2129Y0.6428
X4.2129Y0.436
X4.2129Y0.0423
X4.2151Y0.2442
X4.6066Y3.7926
X4.6066Y3.5858
X4.6066Y3.3989
X4.6066Y3.1921
X4.6066Y3.0052
X4.6066Y2.7984
X4.6066Y2.6115
X4.6066Y2.4047
X4.6066Y2.2178
X4.6066Y2.011
X4.6066Y1.8241
X4.6066Y1.6173
X4.6066Y1.4304
X4.6066Y1.2236
X4.6066Y1.0367
X4.6066Y0.8299
X4.6066Y0.643
X4.6066Y0.4362
X4.6066Y0.0425
X4.6079Y0.2385
X5.0003Y3.7924
X5.0003Y3.5856
X5.0003Y3.3987
X5.0003Y3.1919
X5.0003Y3.005
X5.0003Y2.7982
X5.0003Y2.6113
X5.0003Y2.4045
X5.0003Y2.2176
X5.0003Y2.0108
X5.0003Y1.8239
X5.0003Y1.6171
X5.0003Y1.4302
X5.0003Y1.2234
X5.0003Y1.0365
X5.0003Y0.8297
X5.0003Y0.6428
X5.0003Y0.436
X5.0003Y0.0423
X5.0006Y0.243
X5.3941Y3.7925
X5.3941Y3.5857
X5.3941Y3.3988
X5.3941Y3.192
X5.3941Y3.0051
X5.3941Y2.7983
X5.3941Y2.6114
X5.3941Y2.4046
X5.3941Y2.2177
X5.3941Y2.0109
X5.3941Y1.824
X5.3941Y1.6172
X5.3941Y1.4303
X5.3941Y1.2235
X5.3941Y1.0366
X5.3941Y0.8298
X5.3941Y0.6429
X5.3941Y0.4361
X5.3941Y0.2492
X5.3941Y0.0424
X5.7878Y3.7926
X5.7878Y3.5858
X5.7878Y3.3989
X5.7878Y3.1921
X5.7878Y3.0052
X5.7878Y2.7984
X5.7878Y2.6115
X5.7878Y2.4047
X5.7878Y2.2178
X5.7878Y2.011
X5.7878Y1.8241
X5.7878Y1.6173
X5.7878Y1.4304
X5.7878Y1.2236
X5.7878Y1.0367
X5.7878Y0.8299
X5.7878Y0.643
X5.7878Y0.4362
X5.7878Y0.2493
X5.7878Y0.0425
X6.1814Y3.7926
X6.1814Y3.5858
X6.1814Y3.3989
X6.1814Y3.1921
X6.1814Y3.0052
X6.1814Y2.7984
X6.1814Y2.6115
X6.1814Y2.4047
X6.1814Y2.2178
X6.1814Y2.011
X6.1814Y1.8241
X6.1814Y1.6173
X6.1814Y1.4304
X6.1814Y1.2236
X6.1814Y1.0367
X6.1814Y0.8299
X6.1814Y0.643
X6.1814Y0.4362
X6.1814Y0.2493
X6.1814Y0.0425
X6.5751Y3.7924
X6.5751Y3.5856
X6.5751Y3.3987
X6.5751Y3.1919
X6.5751Y3.005
X6.5751Y2.7982
X6.5751Y2.6113
X6.5751Y2.4045
X6.5751Y2.2176
X6.5751Y2.0108
X6.5751Y1.8239
X6.5751Y1.6171
X6.5751Y1.4302
X6.5751Y1.2234
X6.5751Y1.0365
X6.5751Y0.8297
X6.5751Y0.6428
X6.5751Y0.436
X6.5751Y0.2491
X6.5751Y0.0423
X6.4763Y2.3622
X6.6731Y2.3622
X6.0826Y1.9685
X6.2794Y1.9685
X5.2952Y1.9685
X5.492Y1.9685
X3.3267Y1.5748
X3.5235Y1.5748
X6.0826Y3.1496
X6.2794Y3.1496
X5.6889Y1.5748
X5.8857Y1.5748
X4.1141Y3.937
X4.3109Y3.937
X4.5078Y0.7874
X4.7046Y0.7874
X4.9015Y3.1496
X5.0983Y3.1496
X6.4763Y0.7874
X6.6731Y0.7874
X5.2952Y3.1496
X5.492Y3.1496
X4.5078Y0.3937
X4.7046Y0.3937
X5.6889Y3.937
X5.8857Y3.937
X5.2952Y1.1811
X5.492Y1.1811
X5.2952Y2.3622
X5.492Y2.3622
X2.933Y1.5748
X3.1298Y1.5748
X3.7204Y2.3622
X3.9172Y2.3622
X5.6889Y1.9685
X5.8857Y1.9685
X5.6889Y3.5433
X5.8857Y3.5433
X6.4763Y2.7559
X6.6731Y2.7559
X4.9015Y3.937
X5.0983Y3.937
X6.0826Y0.7874
X6.2794Y0.7874
X3.3267Y2.7559
X3.5235Y2.7559
X4.9015Y0.3937
X5.0983Y0.3937
X3.7204Y3.5433
X3.9172Y3.5433
X4.1141Y1.1811
X4.3109Y1.1811
X6.0826Y3.5433
X6.2794Y3.5433
X6.0826Y1.1811
X6.2794Y1.1811
X5.6889Y1.1811
X5.8857Y1.1811
X2.933Y1.9685
X3.1298Y1.9685
X6.0826Y2.3622
X6.2794Y2.3622
X4.5078Y1.9685
X4.7046Y1.9685
X6.4763Y1.9685
X6.6731Y1.9685
X6.4763Y3.5433
X6.6731Y3.5433
X2.933Y2.3622
X3.1298Y2.3622
X2.933Y0.7874
X3.1298Y0.7874
X6.4763Y3.937
X6.6731Y3.937
X3.7204Y0.3937
X3.9172Y0.3937
X4.9015Y2.7559
X5.0983Y2.7559
X5.6889Y0.3937
X5.8857Y0.3937
X4.9015Y3.5433
X5.0983Y3.5433
X4.5078Y1.1811
X4.7046Y1.1811
X6.4763Y3.1496
X6.6731Y3.1496
X3.3267Y0.7874
X3.5235Y0.7874
X5.6889Y2.3622
X5.8857Y2.3622
X3.3267Y1.9685
X3.5235Y1.9685
X3.7204Y1.9685
X3.9172Y1.9685
X6.4763Y1.5748
X6.6731Y1.5748
X4.1141Y3.5433
X4.3109Y3.5433
X3.3267Y2.3622
X3.5235Y2.3622
X3.7204Y0.7874
X3.9172Y0.7874
X3.3267Y3.5433
X3.5235Y3.5433
X5.2952Y0.7874
X5.492Y0.7874
X6.0826Y3.937
X6.2794Y3.937
X4.1141Y3.1496
X4.3109Y3.1496
X4.1141Y0.3937
X4.3109Y0.3937
X3.3267Y3.1496
X3.5235Y3.1496
X3.3267Y0.3937
X3.5235Y0.3937
X4.5078Y1.5748
X4.7046Y1.5748
X4.1141Y1.5748
X4.3109Y1.5748
X5.2952Y2.7559
X5.492Y2.7559
X2.933Y1.1811
X3.1298Y1.1811
X3.7204Y2.7559
X3.9172Y2.7559
X5.2952Y1.5748
X5.492Y1.5748
X5.2952Y0.3937
X5.492Y0.3937
X4.5078Y3.1496
X4.7046Y3.1496
X2.933Y3.937
X3.1298Y3.937
X6.0826Y0.3937
X6.2794Y0.3937
X5.2952Y3.937
X5.492Y3.937
X4.1141Y0.7874
X4.3109Y0.7874
X2.933Y2.7559
X3.1298Y2.7559
X4.1141Y2.3622
X4.3109Y2.3622
X3.3267Y1.1811
X3.5235Y1.1811
X4.9015Y1.9685
X5.0983Y1.9685
X4.9015Y1.5748
X5.0983Y1.5748
X2.933Y3.5433
X3.1298Y3.5433
X5.6889Y2.7559
X5.8857Y2.7559
X5.2952Y3.5433
X5.492Y3.5433
X3.7204Y1.5748
X3.9172Y1.5748
X6.4763Y0.3937
X6.6731Y0.3937
X2.933Y3.1496
X3.1298Y3.1496
X2.933Y0.3937
X3.1298Y0.3937
X3.3267Y3.937
X3.5235Y3.937
X6.4763Y1.1811
X6.6731Y1.1811
X4.5078Y2.7559
X4.7046Y2.7559
X4.9015Y0.7874
X5.0983Y0.7874
X3.7204Y3.937
X3.9172Y3.937
X4.5078Y2.3622
X4.7046Y2.3622
X6.0826Y1.5748
X6.2794Y1.5748
X4.9015Y2.3622
X5.0983Y2.3622
X4.1141Y1.9685
X4.3109Y1.9685
X4.5078Y3.5433
X4.7046Y3.5433
X6.0826Y2.7559
X6.2794Y2.7559
X5.6889Y3.1496
X5.8857Y3.1496
X3.7204Y3.1496
X3.9172Y3.1496
X4.5078Y3.937
X4.7046Y3.937
X3.7204Y1.1811
X3.9172Y1.1811
X4.1141Y2.7559
X4.3109Y2.7559
X5.6889Y0.7874
X5.8857Y0.7874
X4.9015Y1.1811
X5.0983Y1.1811
T5
X0.5103Y3.6199
X0.5103Y3.5199
T6
X0.9579Y0.2372
X0.9579Y0.1372
X1.0579Y0.2372
X1.0579Y0.1372
X1.1579Y0.2372
X1.1579Y0.1372
X1.2579Y0.2372
X1.2579Y0.1372
X1.3579Y0.2372
X1.3579Y0.1372
T7
X0.118Y4.2126
X0.118Y0.1181
X2.559Y4.2126
X2.559Y0.1181
X6.8503Y4.2126
X6.8503Y0.1181
T8
X0.1297Y3.2342
X0.1297Y0.9508
T9
X0.1701Y3.675
X0.1701Y3.4648
T0
M30
